<?xml version="1.0" encoding="UTF-8"?>
<svg width="1921px" height="1081px" viewBox="0 0 1921 1081" version="1.1" xmlns="http://www.w3.org/2000/svg" xmlns:xlink="http://www.w3.org/1999/xlink">
    <title>编组 2</title>
    <defs>
        <linearGradient x1="0%" y1="45.8054536%" x2="96.2036222%" y2="60.6433256%" id="linearGradient-1">
            <stop stop-color="#0F1C7B" offset="0%"></stop>
            <stop stop-color="#1A066F" offset="50.9560752%"></stop>
            <stop stop-color="#042866" offset="100%"></stop>
        </linearGradient>
        <path d="M127.821072,3.02869622 C139.426314,0.345739008 150.675798,-0.419534023 161.604561,0.204688685 C194.319431,2.14538108 224.147813,16.5895344 251.431989,29.812252 C261.289438,34.4028898 270.971702,38.9695191 280.659357,43.4981348 C303.206838,54.0358944 325.788008,64.3695812 349.846111,72.2083779 C356.796858,74.473186 363.872929,76.5299197 371.106666,78.3225593 C382.577151,81.1655736 394.44382,83.3453513 406.836041,84.6378125 C422.70094,84.9929392 438.356966,85.2590341 453.75965,85.4601058 C467.437449,83.9715748 481.3632,83.0212357 495.278171,82.8671807 C522.794129,80.8674673 551.214304,84.8148756 576.353155,93.4109425 C588.921907,97.7094761 600.671338,103.169424 611.075899,109.624727 C654.009364,133.266162 664.253564,173.461503 647.101739,207.912794 C639.174005,223.837476 625.391096,238.534719 606.278562,249.801739 C577.826045,265.643391 547.594741,274.883688 512.028421,272.243746 C486.963821,270.129181 462.629215,265.711959 438.481951,261.046892 L434.567735,260.288546 C394.788157,252.563214 355.438053,244.466125 314.085741,245.205099 C303.574723,245.393166 292.935687,246.151437 282.125509,247.631965 C264.735165,249.55065 247.285528,252.673764 229.883055,257.480479 C165.260509,273.564217 94.1278693,336.928824 42.557851,301.286108 C11.0773525,278.752068 -0.500937946,251.072192 0.0165275485,221.042478 C1.13500765,156.0753 58.8593617,80.1051953 94.1278693,21.4222586" id="path-2"></path>
        <path d="M1088.684,0.307 C1080.4,25.702 1070.02,50.411 1057.702,74.115 C1051.531,85.96 1044.887,97.562 1037.709,108.828 C1030.506,120.067 1022.885,131.093 1014.075,141.153 C996.674,161.46 975.001,177.995 951.098,189.96 C927.158,201.913 901.094,209.398 874.585,212.797 C848.057,216.212 821.054,215.626 794.643,211.468 C788.04,210.421 781.473,209.152 774.955,207.662 C771.692,206.925 768.455,206.096 765.227,205.275 L755.423,203.242 L751.067638,202.333942 C739.450123,199.920741 727.803111,197.605778 716.036,196.156 C702.815,194.516 689.402,194.007 676.172,195.603 C669.569,196.443 662.983,197.561 656.56,199.298 C650.13,201.017 643.849,203.275 637.776,205.998 C625.622,211.454 614.409,218.854 604.129,227.314 C593.833,235.782 584.433,245.29 575.498,255.19 C557.624,275.007 541.585,296.442 523.405,316.076 C521.138,318.533 518.824,320.948 516.479,323.331 C515.308,324.527 514.119,325.698 512.932,326.87 L509.416,330.439 C504.684,335.166 499.776,339.722 494.667,344.043 C489.563,348.378 484.184,352.391 478.554,356.022 C475.756,357.858 472.819,359.507 469.954,361.187 C467.116,362.938 464.188,364.588 461.221,366.134 C449.356,372.352 436.543,376.791 423.336,379.078 C410.127,381.372 396.596,381.531 383.304,379.988 C376.652,379.233 370.056,378.053 363.532,376.575 C360.271,375.832 357.025,375.012 353.804,374.125 C352.215,373.644 350.573,373.326 348.95,372.943 C347.327,372.537 345.7,372.143 344.09,371.687 C331.167,368.146 318.795,362.865 306.892,356.795 C305.396,356.05 303.937,355.243 302.438,354.509 L297.931,352.335 L288.898,348.015 C282.861,345.163 276.82,342.32 270.747,339.546 C258.615,333.971 246.388,328.602 234.065,323.462 C209.41,313.224 184.315,303.978 158.666,296.543 C145.855,292.791 132.901,289.53 119.849,286.724 C106.786,283.978 93.623,281.672 80.373,280.026 C53.874,276.765 27.032,276.167 0.412,278.367 C27.025,276.08 53.877,276.589 80.405,279.766 C106.93,283.016 133.143,288.628 158.808,296.056 C184.487,303.468 209.612,312.693 234.295,322.911 C246.631,328.038 258.871,333.397 271.015,338.962 C277.094,341.73 283.14,344.568 289.183,347.413 L298.227,351.727 L302.744,353.9 C304.245,354.632 305.711,355.44 307.204,356.182 C319.086,362.225 331.42,367.47 344.283,370.98 C345.887,371.432 347.505,371.823 349.122,372.225 C350.749,372.606 352.389,372.921 353.998,373.408 C357.216,374.289 360.448,375.101 363.699,375.838 C370.2,377.303 376.772,378.47 383.393,379.214 C396.623,380.736 410.075,380.562 423.195,378.268 C436.313,375.981 449.034,371.558 460.819,365.365 C463.771,363.822 466.663,362.189 469.506,360.43 C472.397,358.731 475.286,357.105 478.072,355.274 C483.661,351.66 489.006,347.663 494.077,343.347 C499.16,339.037 504.043,334.494 508.754,329.777 L512.264,326.206 C513.451,325.032 514.64,323.858 515.804,322.666 C518.139,320.288 520.443,317.878 522.702,315.425 C540.797,295.808 556.846,274.384 574.792,254.552 C583.757,244.641 593.2,235.11 603.554,226.614 C613.892,218.125 625.181,210.693 637.424,205.213 C643.54,202.479 649.867,200.211 656.344,198.489 C662.819,196.745 669.436,195.63 676.075,194.793 C689.391,193.202 702.871,193.732 716.131,195.391 C729.412,197.043 742.506,199.787 755.578,202.534 L765.389,204.579 C768.63,205.409 771.861,206.241 775.111,206.978 C781.612,208.471 788.163,209.745 794.749,210.797 C821.094,214.975 848.037,215.591 874.51,212.213 C900.965,208.852 926.976,201.41 950.877,189.518 C974.765,177.659 996.451,161.228 1013.899,141.001 C1022.735,130.98 1030.35,119.962 1037.571,108.741 C1044.761,97.488 1051.419,85.899 1057.605,74.065" id="path-4"></path>
        <path d="M1136.055,0.882 L1136.507,1.775 C1103.247,18.634 1066.533,27.681 1024.267,29.435 C990.301,30.838 952.211,27.402 907.819,18.914 C898.924,17.214 889.526,15.281 879.089,13.004 C773.703,-6.756 659.571,23.206 573.795,93.146 C565.187,100.062 556.318,107.594 547.432,115.535 C531.425,129.836 515.123,145.628 497.597,163.811 C490.018,172.474 479.183,178.555 470.592,182.883 C463.362,187.393 455.85,191.216 448.304,194.224 C432.987,200.328 417.122,203.352 400.22,203.352 C394.101,203.352 387.849,202.956 381.434,202.166 C371.905,200.986 362.214,198.984 351.809,196.045 C336.459,192.768 320.791,186.761 302.532,177.148 C233.645,143.811 158.467,111.64 75.633,102.097 C67.315,101.207 58.961,100.563 50.808,100.181 C42.385,99.788 33.916,99.659 25.639,99.806 C17.124,99.953 8.526,100.39 0.084,101.103 L0,100.107 C8.464,99.391 17.084,98.953 25.621,98.806 C33.921,98.663 42.411,98.788 50.855,99.183 C59.027,99.566 67.401,100.211 75.744,101.103 C158.73,110.663 234.001,142.872 302.982,176.255 C321.174,185.832 336.761,191.81 352.049,195.075 C362.436,198.007 372.078,199.999 381.556,201.174 C405.519,204.123 427.231,201.545 447.934,193.294 C455.425,190.309 462.884,186.513 470.102,182.013 C478.652,177.703 489.379,171.686 496.861,163.135 C514.421,144.915 530.74,129.108 546.766,114.788 C555.665,106.837 564.547,99.293 573.166,92.368 C614.707,58.496 664.621,33.134 717.508,19.025 C771.268,4.682 827.21,2.261 879.288,12.025 C889.731,14.302 899.121,16.234 908.007,17.932" id="path-6"></path>
        <filter x="-6.6%" y="-12.5%" width="113.2%" height="124.9%" filterUnits="objectBoundingBox" id="filter-8">
            <feGaussianBlur stdDeviation="50" in="SourceGraphic"></feGaussianBlur>
        </filter>
    </defs>
    <g id="页面-1" stroke="none" stroke-width="1" fill="none" fill-rule="evenodd">
        <g id="登录页（运营2）背景" transform="translate(1.000000, 1.000000)">
            <rect id="矩形备份-20" fill-opacity="0" fill="#FFFFFF" x="0" y="203" width="219" height="48"></rect>
            <rect id="矩形备份-21" fill-opacity="0" fill="#FFFFFF" x="0" y="251" width="219" height="48"></rect>
            <g id="编组-2" transform="translate(-134.000000, -130.000000)">
                <rect id="矩形" fill="#FFFFFF" x="134" y="130" width="1920" height="1080"></rect>
                <g id="编组-3" transform="translate(134.000000, 130.000000)" fill="url(#linearGradient-1)">
                    <rect id="矩形" x="0" y="0" width="1920" height="1080"></rect>
                </g>
                <g id="编组" opacity="0.625139509">
                    <mask id="mask-3" fill="white">
                        <use xlink:href="#path-2"></use>
                    </mask>
                    <g id="Clip-2"></g>
                    <path d="M42.557851,301.286108 C94.1278693,336.928824 165.260509,273.564217 229.883055,257.480479 C247.285528,252.673764 264.735165,249.55065 282.125509,247.631965 C292.935687,246.151437 303.574723,245.393166 314.085741,245.205099 C381.876416,243.993667 444.286259,266.528707 512.028421,272.243746 C547.594741,274.883688 577.826045,265.643391 606.278562,249.801739 C625.391096,238.534719 639.174005,223.837476 647.101739,207.912794 C664.253564,173.461503 654.009364,133.266162 611.075899,109.624727 C600.671338,103.169424 588.921907,97.7094761 576.353155,93.4109425 C551.214304,84.8148756 522.794129,80.8674673 495.278171,82.8671807 C481.3632,83.0212357 467.437449,83.9715748 453.75965,85.4601058 C438.356966,85.2590341 422.70094,84.9929392 406.836041,84.6378125 C394.44382,83.3453513 382.577151,81.1655736 371.106666,78.3225593 C363.872929,76.5299197 356.796858,74.473186 349.846111,72.2083779 C325.788008,64.3695812 303.206838,54.0358944 280.659357,43.4981348 C270.971702,38.9695191 261.289438,34.4028898 251.431989,29.812252 C224.147813,16.5895344 194.319431,2.14538108 161.604561,0.204688685 C150.675798,-0.419534023 139.426314,0.345739008 127.821072,3.02869622 C113.689143,6.90207816 99.4628846,12.1819619 94.1278693,21.4222586 C58.8593617,80.1051953 1.13500765,156.0753 0.0165275485,221.042478 C-0.500937946,251.072192 11.0773525,278.752068 42.557851,301.286108" id="Fill-1" fill="#363CA2" opacity="0.541503906" mask="url(#mask-3)"></path>
                </g>
                <g id="编组" transform="translate(1592.216366, 1144.278570) rotate(1.000000) translate(-1592.216366, -1144.278570) translate(974.716366, 1042.278570)" fill="#363CA2" opacity="0.446591332">
                    <path d="M849.881396,0.7251719 C835.266662,0.728434036 819.783112,1.38575442 803.189565,2.83686122 L803.189565,2.83686122 C738.837912,8.46404569 700.830014,24.7605894 646.853383,37.0604729 L646.853383,37.0604729 C594.285758,49.0395797 545.13275,42.6860263 488.270408,47.0224923 L488.270408,47.0224923 C375.494933,55.6220263 346.588451,92.6565117 277.033772,121.744978 L277.033772,121.744978 C242.295219,136.273987 170.387966,142.377987 108.577883,149.08222 L108.577883,149.08222 C94.7501619,150.582259 81.4273697,152.111657 69.1398231,153.772628 L69.1398231,153.772628 C65.3161845,154.289677 61.5926856,154.81923 57.9876616,155.364551 L57.9876616,155.364551 C23.9712417,160.505677 0.287531596,167.046803 0.287531596,177.538376 L0.287531596,177.538376 L0.287531596,177.557405 C0.287531596,180.041521 1.63165831,182.746919 4.47082628,185.707852 L4.47082628,185.707852 C7.91929408,189.300551 12.9488385,192.640978 20.3464719,195.238182 L20.3464719,195.238182 C49.2049994,205.374725 102.999687,201.677638 157.529201,197.981094 L157.529201,197.981094 C193.022326,195.575269 228.825744,193.1689 258.269594,194.577055 L258.269594,194.577055 C342.604025,198.610143 428.144362,203.681677 513.413899,203.725172 L513.413899,203.725172 L515.605686,203.725172 C520.410974,203.722997 525.213441,203.703968 530.015909,203.668628 L530.015909,203.668628 C605.646661,203.104822 679.346553,195.629094 754.753049,194.660784 L754.753049,194.660784 C786.072753,194.258997 817.455925,195.008201 848.806659,196.050997 L848.806659,196.050997 C878.497332,197.039968 908.159796,198.291541 937.706607,199.080434 L937.706607,199.080434 C1017.61515,201.213327 1117.89575,204.865288 1173.12765,181.883541 L1173.12765,181.883541 C1185.6733,176.663036 1194.82267,170.422026 1201.21891,163.770531 L1201.21891,163.770531 C1215.30756,149.119191 1234.14085,122.552356 1234.28753,101.979696 L1234.28753,101.979696 L1234.28753,101.497444 C1234.24099,95.1792302 1232.39898,89.4443952 1228.07183,84.8208612 L1228.07183,84.8208612 C1225.51333,82.0871913 1222.68827,79.6052496 1219.62484,77.3418709 L1219.62484,77.3418709 C1216.18907,74.8055602 1212.45006,72.5443564 1208.44306,70.5120457 L1208.44306,70.5120457 C1195.56455,63.9823369 1179.91316,59.824201 1162.64685,56.5305311 L1162.64685,56.5305311 C1137.12395,51.6617933 1108.06797,48.6796573 1079.20098,42.7115797 L1079.20098,42.7115797 C999.100617,26.152434 942.334183,1.44121074 853.841845,0.740395201 L853.841845,0.740395201 C852.589395,0.730608793 851.331304,0.7251719 850.06616,0.7251719 L850.06616,0.7251719 L849.881396,0.7251719 Z" id="Fill-1"></path>
                </g>
                <g id="编组" opacity="0.301688058" transform="translate(925.000000, 479.693000)">
                    <path d="M0.412,278.367 C27.025,276.08 53.877,276.589 80.405,279.766 C106.93,283.016 133.143,288.628 158.808,296.056 C184.487,303.468 209.612,312.693 234.295,322.911 C246.631,328.038 258.871,333.397 271.015,338.962 C277.094,341.73 283.14,344.568 289.183,347.413 L298.227,351.727 L302.744,353.9 C304.245,354.632 305.711,355.44 307.204,356.182 C319.086,362.225 331.42,367.47 344.283,370.98 C345.887,371.432 347.505,371.823 349.122,372.225 C350.749,372.606 352.389,372.921 353.998,373.408 C357.216,374.289 360.448,375.101 363.699,375.838 C370.2,377.303 376.772,378.47 383.393,379.214 C396.623,380.736 410.075,380.562 423.195,378.268 C436.313,375.981 449.034,371.558 460.819,365.365 C463.771,363.822 466.663,362.189 469.506,360.43 C472.397,358.731 475.286,357.105 478.072,355.274 C483.661,351.66 489.006,347.663 494.077,343.347 C499.16,339.037 504.043,334.494 508.754,329.777 L512.264,326.206 C513.451,325.032 514.64,323.858 515.804,322.666 C518.139,320.288 520.443,317.878 522.702,315.425 C540.797,295.808 556.846,274.384 574.792,254.552 C583.757,244.641 593.2,235.11 603.554,226.614 C613.892,218.125 625.181,210.693 637.424,205.213 C643.54,202.479 649.867,200.211 656.344,198.489 C662.819,196.745 669.436,195.63 676.075,194.793 C689.391,193.202 702.871,193.732 716.131,195.391 C729.412,197.043 742.506,199.787 755.578,202.534 L765.389,204.579 C768.63,205.409 771.861,206.241 775.111,206.978 C781.612,208.471 788.163,209.745 794.749,210.797 C821.094,214.975 848.037,215.591 874.51,212.213 C900.965,208.852 926.976,201.41 950.877,189.518 C974.765,177.659 996.451,161.228 1013.899,141.001 C1022.735,130.98 1030.35,119.962 1037.571,108.741 C1044.761,97.488 1051.419,85.899 1057.605,74.065 C1069.952,50.382 1080.366,25.69 1088.684,0.307 C1080.4,25.702 1070.02,50.411 1057.702,74.115 C1051.531,85.96 1044.887,97.562 1037.709,108.828 C1030.506,120.067 1022.885,131.093 1014.075,141.153 C996.674,161.46 975.001,177.995 951.098,189.96 C927.158,201.913 901.094,209.398 874.585,212.797 C848.057,216.212 821.054,215.626 794.643,211.468 C788.04,210.421 781.473,209.152 774.955,207.662 C771.692,206.925 768.455,206.096 765.227,205.275 L755.423,203.242 C742.36,200.513 729.274,197.787 716.036,196.156 C702.815,194.516 689.402,194.007 676.172,195.603 C669.569,196.443 662.983,197.561 656.56,199.298 C650.13,201.017 643.849,203.275 637.776,205.998 C625.622,211.454 614.409,218.854 604.129,227.314 C593.833,235.782 584.433,245.29 575.498,255.19 C557.624,275.007 541.585,296.442 523.405,316.076 C521.138,318.533 518.824,320.948 516.479,323.331 C515.308,324.527 514.119,325.698 512.932,326.87 L509.416,330.439 C504.684,335.166 499.776,339.722 494.667,344.043 C489.563,348.378 484.184,352.391 478.554,356.022 C475.756,357.858 472.819,359.507 469.954,361.187 C467.116,362.938 464.188,364.588 461.221,366.134 C449.356,372.352 436.543,376.791 423.336,379.078 C410.127,381.372 396.596,381.531 383.304,379.988 C376.652,379.233 370.056,378.053 363.532,376.575 C360.271,375.832 357.025,375.012 353.804,374.125 C352.215,373.644 350.573,373.326 348.95,372.943 C347.327,372.537 345.7,372.143 344.09,371.687 C331.167,368.146 318.795,362.865 306.892,356.795 C305.396,356.05 303.937,355.243 302.438,354.509 L297.931,352.335 L288.898,348.015 C282.861,345.163 276.82,342.32 270.747,339.546 C258.615,333.971 246.388,328.602 234.065,323.462 C209.41,313.224 184.315,303.978 158.666,296.543 C145.855,292.791 132.901,289.53 119.849,286.724 C106.786,283.978 93.623,281.672 80.373,280.026 C53.874,276.765 27.032,276.167 0.412,278.367" id="Fill-1" fill="#D9CBCB"></path>
                    <mask id="mask-5" fill="white">
                        <use xlink:href="#path-4"></use>
                    </mask>
                    <g id="Clip-2"></g>
                </g>
                <g id="编组" opacity="0.215378534" transform="translate(175.000000, 617.693000)">
                    <mask id="mask-7" fill="white">
                        <use xlink:href="#path-6"></use>
                    </mask>
                    <g id="Clip-4"></g>
                    <path d="M400.22,203.352 C394.101,203.352 387.849,202.956 381.434,202.166 C371.905,200.986 362.214,198.984 351.809,196.045 C336.459,192.768 320.791,186.761 302.532,177.148 C233.645,143.811 158.467,111.64 75.633,102.097 C67.315,101.207 58.961,100.563 50.808,100.181 C42.385,99.788 33.916,99.659 25.639,99.806 C17.124,99.953 8.526,100.39 0.084,101.103 L0,100.107 C8.464,99.391 17.084,98.953 25.621,98.806 C33.921,98.663 42.411,98.788 50.855,99.183 C59.027,99.566 67.401,100.211 75.744,101.103 C158.73,110.663 234.001,142.872 302.982,176.255 C321.174,185.832 336.761,191.81 352.049,195.075 C362.436,198.007 372.078,199.999 381.556,201.174 C405.519,204.123 427.231,201.545 447.934,193.294 C455.425,190.309 462.884,186.513 470.102,182.013 C478.652,177.703 489.379,171.686 496.861,163.135 C514.421,144.915 530.74,129.108 546.766,114.788 C555.665,106.837 564.547,99.293 573.166,92.368 C614.707,58.496 664.621,33.134 717.508,19.025 C771.268,4.682 827.21,2.261 879.288,12.025 C889.731,14.302 899.121,16.234 908.007,17.932 C973.732,30.5 1059.047,39.917 1136.055,0.882 L1136.507,1.775 C1103.247,18.634 1066.533,27.681 1024.267,29.435 C990.301,30.838 952.211,27.402 907.819,18.914 C898.924,17.214 889.526,15.281 879.089,13.004 C773.703,-6.756 659.571,23.206 573.795,93.146 C565.187,100.062 556.318,107.594 547.432,115.535 C531.425,129.836 515.123,145.628 497.597,163.811 C490.018,172.474 479.183,178.555 470.592,182.883 C463.362,187.393 455.85,191.216 448.304,194.224 C432.987,200.328 417.122,203.352 400.22,203.352" id="Fill-3" fill="#D9CBCB" mask="url(#mask-7)"></path>
                </g>
            </g>
            <path d="M81.6775089,955.809722 C189.06733,976.84677 156.439967,1011.68049 364.827058,909.058152 C573.214148,806.43581 603.682635,648.654259 860.257359,591.750564 C1116.83208,534.846868 859.148357,581.661263 1221.62678,319.661263 C1584.1052,57.6612631 1572.91577,-60.7496541 1869.61821,95.4558045 C2067.41984,199.592777 2208.05651,439.427319 2291.52824,814.959432 L2220.60955,1233.5636 L26.7411236,1119.89676 C-8.22783349,996.480701 10.0842949,941.785023 81.6775089,955.809722 Z" id="路径-2" stroke="#979797" fill="#969696" opacity="0.172758557" filter="url(#filter-8)" transform="translate(1150.528243, 629.504959) rotate(179.000000) translate(-1150.528243, -629.504959) "></path>
        </g>
    </g>
</svg>