<?xml version="1.0" encoding="UTF-8"?>
<svg width="179px" height="32px" viewBox="0 0 179 32" version="1.1" xmlns="http://www.w3.org/2000/svg" xmlns:xlink="http://www.w3.org/1999/xlink">
    <title>编组 8</title>
    <defs>
        <filter id="filter-1">
            <feColorMatrix in="SourceGraphic" type="matrix" values="0 0 0 0 1.000000 0 0 0 0 1.000000 0 0 0 0 1.000000 0 0 0 1.000000 0"></feColorMatrix>
        </filter>
    </defs>
    <g id="页面-1" stroke="none" stroke-width="1" fill="none" fill-rule="evenodd">
        <g id="1920*1080" transform="translate(-32.000000, -33.000000)">
            <g id="编组-8" transform="translate(32.000000, 33.000000)">
                <g id="编组-5" transform="translate(35.000000, 0.000000)" fill-rule="nonzero">
                    <text id="轻量化应用开发平台" font-family="HarmonyOS_Sans_SC_Medium, HarmonyOS Sans SC" font-size="15" font-weight="400" letter-spacing="0.9375" fill="#FFFFFF">
                        <tspan x="0.5625" y="18">轻量化应用开发平台</tspan>
                    </text>
                    <text id="CLOUD-DEVELOPMENT" fill="#989898" font-family="HarmonyOS_Sans_SC, HarmonyOS Sans SC" font-size="8" font-weight="normal" letter-spacing="3.1">
                        <tspan x="1.62" y="30">CLOUD DEVELOPMENT</tspan>
                    </text>
                </g>
                <g filter="url(#filter-1)" id="分组">
                    <g id="编组-4" fill="#FFFFFF" fill-rule="nonzero">
                        <path d="M1.37097521,10.7737988 C1.37097521,10.7737988 4.60255962,14.9846512 8.12792444,17.8245284 C8.91133884,18.510016 10.1843872,18.4120892 10.8698749,17.6286748 C12.2408501,16.3556264 18.2143849,10.9696524 18.2143849,10.9696524 C18.2143849,10.9696524 20.4667013,8.71733597 22.9148713,10.9696524 C22.9148713,10.9696524 28.1049917,15.572212 31.0427957,19.489284 C31.1407226,19.5872108 31.1407226,19.7830644 31.0427957,19.8809912 C30.9448689,20.1747716 30.6510885,20.8602592 30.6510885,20.8602592 C28.5946257,18.3141624 26.3423093,15.9639192 23.8941393,13.8095296 C23.8941393,13.8095296 22.5231641,12.7323348 21.2501157,13.9074564 C19.9770673,15.082578 14.2973129,20.2726984 13.4159717,20.958186 C12.5346305,21.6436736 10.9678017,22.3291612 8.81341204,20.468552 C7.14865643,18.99965 2.74195041,14.7887976 1.07719481,12.2427008 C0.979268005,12.144774 0.979268005,11.9489204 1.07719481,11.8509936 L1.37097521,10.7737988 Z" id="路径_6_"></path>
                        <path d="M1.95853601,9.50075038 L3.81914522,11.4592864 C3.81914522,11.4592864 4.01499882,11.7530668 4.50463282,11.3613596 C4.89634002,10.9696524 10.5760945,5.58367836 12.7304841,4.01684955 C13.9056057,3.13550835 15.2765809,2.54794754 16.7454829,2.45002074 C17.9206045,2.35209394 19.1936529,2.54794754 20.2708477,3.03758155 C21.6418229,3.62514235 23.6982857,5.38782476 25.7547485,7.34636077 C27.1257237,8.81526277 28.4966989,10.2841648 29.6718205,11.9489204 C30.4552349,13.0261152 31.2386494,14.0053832 31.8262102,14.9846512 C31.8262102,14.2012368 31.6303566,13.4178224 31.2386494,12.634408 C29.4759669,9.50075038 27.1257237,6.56294636 24.4817001,4.11477635 C24.0899929,3.72306915 20.1729209,-0.09607607 16.5496293,0.00185073049 C14.1014593,0.00185073049 11.7512161,0.883191935 9.89060685,2.35209394 C9.30304604,2.84172794 3.72121842,7.64014117 1.95853601,9.50075038 Z" id="路径_7_"></path>
                        <path d="M5.97353483,13.7116028 L8.02999764,15.6701388 C8.32377804,15.8659924 8.81341204,15.8659924 9.00926564,15.572212 C9.00926564,15.572212 10.9678017,13.613676 12.7304841,12.0468472 C14.2973129,10.5779452 15.9620685,9.01111637 16.5496293,8.61940917 C16.5496293,8.61940917 19.1936529,5.87745876 22.5231641,8.52148237 C25.8526753,11.3613596 28.8884061,14.592944 31.5324298,18.1183088 L31.7282834,17.4328212 C31.8262102,17.041114 31.7282834,16.6494068 31.5324298,16.2576996 C31.5324298,16.2576996 28.0070649,11.0675792 23.7962125,7.44428757 C23.7962125,7.44428757 21.6418229,5.19197116 18.8998725,4.60441035 C17.3330437,4.31062995 15.7662149,4.80026395 14.4931665,5.77953196 C13.4159717,6.56294636 11.1636553,8.71733597 9.20511924,10.5779452 C7.34451004,12.2427008 5.97353483,13.7116028 5.97353483,13.7116028 Z" id="路径_8_"></path>
                        <path d="M29.8676741,22.1333076 L28.0070649,20.1747716 C28.0070649,20.1747716 27.8112113,19.8809912 27.3215773,20.2726984 C26.9298701,20.6644056 21.2501157,26.0503797 19.0957261,27.6172085 C17.9206045,28.4985497 16.5496293,29.0861105 15.0807273,29.1840373 C13.9056057,29.2819641 12.6325573,29.0861105 11.5553625,28.5964765 C10.1843872,28.0089157 8.12792444,26.2462333 6.07146163,24.2876972 C4.70048642,22.8187952 3.32951122,21.3498932 2.15438961,19.6851376 C1.37097521,18.6079428 0.587560803,17.6286748 -1.10025236e-13,16.6494068 C-1.10025236e-13,17.4328212 0.195853601,18.2162356 0.587560803,18.99965 C2.35024321,22.1333076 4.70048642,25.0711117 7.34451004,27.5192817 C7.73621724,27.9109889 11.6532893,31.7301341 15.3745077,31.6322073 C17.8226777,31.6322073 20.1729209,30.7508661 22.0335301,29.2819641 C22.6210909,28.7923301 28.2029185,23.9939168 29.8676741,22.1333076 Z" id="路径_9_"></path>
                        <path d="M25.9506021,17.8245284 L23.8941393,15.8659924 C23.6003589,15.6701388 23.1107249,15.6701388 22.9148713,16.061846 C22.9148713,16.061846 20.9563353,18.020382 19.1936529,19.5872108 C17.6268241,21.0561128 15.9620685,22.6229416 15.3745077,23.0146488 C15.3745077,23.0146488 12.7304841,25.7565993 9.40097285,23.1125756 C6.07146163,20.2726984 3.03573081,17.041114 0.391707202,13.5157492 L0.195853601,14.2012368 C0.0979268005,14.592944 0.195853601,14.9846512 0.391707202,15.3763584 C0.391707202,15.3763584 3.91707202,20.468552 8.12792444,24.1897704 C8.12792444,24.1897704 10.282314,26.4420869 13.0242645,27.0296477 C14.5910933,27.3234281 16.1579221,26.8337941 17.4309705,25.8545261 C18.5081653,25.0711117 20.7604817,22.916722 22.7190177,21.0561128 C24.5796269,19.2934304 25.9506021,17.8245284 25.9506021,17.8245284 Z" id="路径_10_"></path>
                    </g>
                </g>
            </g>
        </g>
    </g>
</svg>